<svg width="431" height="56" viewBox="0 0 431 56" fill="none" xmlns="http://www.w3.org/2000/svg">
<path d="M0.283438 4.896H16.6994C21.1154 4.896 24.6434 6.24 27.2834 8.928C29.9234 11.616 31.2434 15.336 31.2434 20.088C31.2434 24.792 29.8514 28.488 27.0674 31.176C24.3314 33.864 20.6834 35.208 16.1234 35.208H5.68344V54H0.283438V4.896ZM15.9794 30.744C19.1954 30.744 21.6434 29.856 23.3234 28.08C25.0034 26.256 25.8434 23.592 25.8434 20.088C25.8434 16.584 25.0034 13.92 23.3234 12.096C21.6434 10.272 19.1954 9.36 15.9794 9.36H5.68344V30.744H15.9794ZM50.7284 19.152C53.7524 19.152 56.4884 19.896 58.9364 21.384C61.3844 22.872 63.3044 24.912 64.6964 27.504C66.0884 30.048 66.7844 32.904 66.7844 36.072C66.7844 36.984 66.7604 37.68 66.7124 38.16H38.9924C39.1844 41.616 40.3124 44.568 42.3764 47.016C44.4404 49.464 47.2484 50.688 50.8004 50.688C53.6804 50.688 56.0564 50.16 57.9284 49.104C59.8484 48 61.3844 46.488 62.5364 44.568L66.4244 47.16C64.8404 49.656 62.7524 51.624 60.1604 53.064C57.5684 54.456 54.4964 55.152 50.9444 55.152C47.6804 55.152 44.7764 54.384 42.2324 52.848C39.6884 51.312 37.6964 49.176 36.2564 46.44C34.8164 43.704 34.0964 40.608 34.0964 37.152C34.0964 33.696 34.7924 30.6 36.1844 27.864C37.6244 25.128 39.5924 22.992 42.0884 21.456C44.6324 19.92 47.5124 19.152 50.7284 19.152ZM61.8884 34.128C61.4084 30.624 60.2324 28.008 58.3604 26.28C56.4884 24.504 53.9444 23.616 50.7284 23.616C47.6084 23.616 45.0404 24.624 43.0244 26.64C41.0564 28.608 39.8084 31.104 39.2804 34.128H61.8884ZM90.5726 19.152C91.7246 19.152 92.8286 19.32 93.8846 19.656V24.12C92.8766 23.64 91.7726 23.4 90.5726 23.4C88.5086 23.4 86.5886 23.976 84.8126 25.128C83.0366 26.28 81.5966 27.96 80.4926 30.168C79.4366 32.328 78.9086 34.896 78.9086 37.872V54H74.0126V20.304H78.9086V27.072C80.2046 24.576 81.8366 22.632 83.8046 21.24C85.8206 19.848 88.0766 19.152 90.5726 19.152ZM110.867 4.968C109.187 4.968 107.795 5.544 106.691 6.696C105.635 7.848 105.107 9.336 105.107 11.16V20.304H112.883V24.768H105.107V54H100.211V24.768H95.891V20.304H100.211V11.16C100.211 8.04 101.195 5.496 103.163 3.528C105.179 1.512 107.747 0.503998 110.867 0.503998H112.883V4.968H110.867ZM132.783 19.152C135.807 19.152 138.543 19.896 140.991 21.384C143.439 22.872 145.359 24.912 146.751 27.504C148.143 30.048 148.839 32.904 148.839 36.072C148.839 36.984 148.815 37.68 148.767 38.16H121.047C121.239 41.616 122.367 44.568 124.431 47.016C126.495 49.464 129.303 50.688 132.855 50.688C135.735 50.688 138.111 50.16 139.983 49.104C141.903 48 143.439 46.488 144.591 44.568L148.479 47.16C146.895 49.656 144.807 51.624 142.215 53.064C139.623 54.456 136.551 55.152 132.999 55.152C129.735 55.152 126.831 54.384 124.287 52.848C121.743 51.312 119.751 49.176 118.311 46.44C116.871 43.704 116.151 40.608 116.151 37.152C116.151 33.696 116.847 30.6 118.239 27.864C119.679 25.128 121.647 22.992 124.143 21.456C126.687 19.92 129.567 19.152 132.783 19.152ZM143.943 34.128C143.463 30.624 142.287 28.008 140.415 26.28C138.543 24.504 135.999 23.616 132.783 23.616C129.663 23.616 127.095 24.624 125.079 26.64C123.111 28.608 121.863 31.104 121.335 34.128H143.943ZM170.683 55.152C167.419 55.152 164.515 54.384 161.971 52.848C159.427 51.312 157.435 49.176 155.995 46.44C154.555 43.704 153.835 40.608 153.835 37.152C153.835 33.696 154.531 30.6 155.923 27.864C157.363 25.128 159.355 22.992 161.899 21.456C164.443 19.92 167.323 19.152 170.539 19.152C173.275 19.152 175.651 19.752 177.667 20.952C179.731 22.104 181.603 23.76 183.283 25.92L179.683 28.728C177.331 25.32 174.283 23.616 170.539 23.616C168.283 23.616 166.243 24.192 164.419 25.344C162.643 26.496 161.251 28.104 160.243 30.168C159.235 32.232 158.731 34.56 158.731 37.152C158.731 39.744 159.235 42.072 160.243 44.136C161.251 46.2 162.643 47.808 164.419 48.96C166.243 50.112 168.283 50.688 170.539 50.688C172.843 50.688 174.739 50.304 176.227 49.536C177.715 48.72 179.059 47.544 180.259 46.008L184.075 48.672C182.491 50.64 180.523 52.224 178.171 53.424C175.867 54.576 173.371 55.152 170.683 55.152ZM192.18 54V24.768H186.42V20.304H192.18V9.144H197.076V20.304H204.852V24.768H197.076V54H192.18ZM283.709 4.896H289.757V54H284.429V14.76L268.013 54H262.973L247.277 14.904V54H241.877V4.896H248.501L265.709 47.952L283.709 4.896ZM314.755 55.152C311.539 55.152 308.659 54.384 306.115 52.848C303.571 51.312 301.579 49.176 300.139 46.44C298.699 43.656 297.979 40.536 297.979 37.08C297.979 33.624 298.675 30.552 300.067 27.864C301.507 25.128 303.475 22.992 305.971 21.456C308.515 19.92 311.395 19.152 314.611 19.152C317.827 19.152 320.707 19.92 323.251 21.456C325.795 22.992 327.787 25.128 329.227 27.864C330.667 30.6 331.387 33.696 331.387 37.152C331.387 40.608 330.667 43.704 329.227 46.44C327.835 49.176 325.867 51.312 323.323 52.848C320.827 54.384 317.971 55.152 314.755 55.152ZM314.611 50.688C316.915 50.688 318.955 50.112 320.731 48.96C322.555 47.808 323.971 46.2 324.979 44.136C325.987 42.072 326.491 39.744 326.491 37.152C326.491 34.56 325.987 32.232 324.979 30.168C323.971 28.104 322.555 26.496 320.731 25.344C318.955 24.192 316.915 23.616 314.611 23.616C312.355 23.616 310.339 24.192 308.563 25.344C306.787 26.496 305.395 28.104 304.387 30.168C303.379 32.184 302.875 34.488 302.875 37.08C302.875 39.72 303.379 42.072 304.387 44.136C305.395 46.2 306.787 47.808 308.563 48.96C310.339 50.112 312.355 50.688 314.611 50.688ZM367.909 20.304V54H363.013V48.384C361.861 50.544 360.325 52.224 358.405 53.424C356.533 54.576 354.349 55.152 351.853 55.152C349.501 55.152 347.317 54.672 345.301 53.712C343.333 52.752 341.749 51.336 340.549 49.464C339.397 47.592 338.821 45.384 338.821 42.84V20.304H343.717V40.68C343.717 47.352 346.693 50.688 352.645 50.688C356.101 50.688 358.693 49.464 360.421 47.016C362.149 44.568 363.013 41.28 363.013 37.152V20.304H367.909ZM393.045 19.152C395.397 19.152 397.557 19.632 399.525 20.592C401.541 21.552 403.125 22.968 404.277 24.84C405.477 26.712 406.077 28.92 406.077 31.464V54H401.181V33.624C401.181 26.952 398.205 23.616 392.253 23.616C388.797 23.616 386.205 24.84 384.477 27.288C382.749 29.736 381.885 33.024 381.885 37.152V54H376.989V20.304H381.885V25.92C383.037 23.76 384.549 22.104 386.421 20.952C388.341 19.752 390.549 19.152 393.045 19.152ZM417.461 54V24.768H411.701V20.304H417.461V9.144H422.357V20.304H430.133V24.768H422.357V54H417.461Z" fill="white"/>
</svg>
